<svg class="diagram-root" style="background: #f5f6f6" xmlns="http://www.w3.org/2000/svg" xmlns:xlink="http://www.w3.org/1999/xlink"><style>.diagram-root { font-family: "Helvetica Neue", sans-serif; font-size: 12px; } .t { overflow: visible; } .t-bg { y: 40; fill: #fff;   } .th { fill: #005aa0;   } .tht { fill: #fff; font-size: 14px;  } .tf { fill: #323c46; overflow: visible; } .tf.pk { fill: #005aa0; font-weight: bold; } .tf.fk { font-weight: bold; } .ty { fill: #adb1b5; font-weight: normal; text-anchor: end; } .r { fill: transparent; stroke: #c3c3c3; stroke-width: 1; } .l { stroke: 1; } .i { fill: #c2c7ce; stroke: #c2c7ce; } .i.ix { fill: #afb3b6; stroke: #000; } .fa { fill: transparent; overflow: visible; } .fa .bg.hover { fill: #f7f7f7; } .c { cy: 12; r: 4; stroke: #d2d2dc; fill: #d2d2dc; } .hr { fill: transparent; stroke: #323c46; stroke-opacity: 0.035; stroke-width: 13; } .dc { stroke: #fa5a3c; fill: #fa5a3c; } .x { stroke: white; stroke-width: 1; } .hl .th { fill: #1b9bff; } .hl .tht {  } .fhl .bg { fill: #e7f4ff; } .fhls .bg {  } .r.hl { stroke: #1b9bff; } .dim { opacity: 0.25; }</style><g class="drawing-wrapper" transform="translate(-152.22222222222214, -1) scale(1,1)"><g class="rs"><path d="M 318.95 218 m -1, 0 a 1,1 0 1,0 2,0 a 1,1 0 1,0 -2,0 M 318.95 218 m -0.5, 0 a 0.5,0.5 0 1,0 1,0 a 0.5,0.5 0 1,0 -1,0  M318.95 218 L318.95 218 330.95 218 M 318.95 224 m -1, 0 a 1,1 0 1,0 2,0 a 1,1 0 1,0 -2,0 M 318.95 224 m -0.5, 0 a 0.5,0.5 0 1,0 1,0 a 0.5,0.5 0 1,0 -1,0  M318.95 224 L318.95 224 325.95 218 318.95 212 M 318.95 212 m -1, 0 a 1,1 0 1,0 2,0 a 1,1 0 1,0 -2,0 M 318.95 212 m -0.5, 0 a 0.5,0.5 0 1,0 1,0 a 0.5,0.5 0 1,0 -1,0  M330.95 218 Q 354.47 218, 377.98 288 T 425 358 M 437 358 m -1, 0 a 1,1 0 1,0 2,0 a 1,1 0 1,0 -2,0 M 437 358 m -0.5, 0 a 0.5,0.5 0 1,0 1,0 a 0.5,0.5 0 1,0 -1,0  M437 358 L437 358 425 358 M431 364 L431 364 431 352" id="h1981091798" class="r"></path><path d="M 309.35 354.11 m -1, 0 a 1,1 0 1,0 2,0 a 1,1 0 1,0 -2,0 M 309.35 354.11 m -0.5, 0 a 0.5,0.5 0 1,0 1,0 a 0.5,0.5 0 1,0 -1,0  M309.35 354.11 L309.35 354.11 321.35 354.11 M315.35 360.11 L315.35 360.11 315.35 348.11 M321.35 354.11 C 386.71 354.11, 380.95 93, 330.95 93 M 318.95 93 m -1, 0 a 1,1 0 1,0 2,0 a 1,1 0 1,0 -2,0 M 318.95 93 m -0.5, 0 a 0.5,0.5 0 1,0 1,0 a 0.5,0.5 0 1,0 -1,0  M318.95 93 L318.95 93 330.95 93 M324.95 99 L324.95 99 324.95 87" id="h2393061165" class="r"></path><path d="M 309.35 379.11 m -1, 0 a 1,1 0 1,0 2,0 a 1,1 0 1,0 -2,0 M 309.35 379.11 m -0.5, 0 a 0.5,0.5 0 1,0 1,0 a 0.5,0.5 0 1,0 -1,0  M309.35 379.11 L309.35 379.11 321.35 379.11 M 309.35 385.11 m -1, 0 a 1,1 0 1,0 2,0 a 1,1 0 1,0 -2,0 M 309.35 385.11 m -0.5, 0 a 0.5,0.5 0 1,0 1,0 a 0.5,0.5 0 1,0 -1,0  M309.35 385.11 L309.35 385.11 316.35 379.11 309.35 373.11 M 309.35 373.11 m -1, 0 a 1,1 0 1,0 2,0 a 1,1 0 1,0 -2,0 M 309.35 373.11 m -0.5, 0 a 0.5,0.5 0 1,0 1,0 a 0.5,0.5 0 1,0 -1,0  M321.35 379.11 C 366.8676308942175 379.11, 370.0476308942175 515.56, 316.05 515.56 M 304.05 515.56 m -1, 0 a 1,1 0 1,0 2,0 a 1,1 0 1,0 -2,0 M 304.05 515.56 m -0.5, 0 a 0.5,0.5 0 1,0 1,0 a 0.5,0.5 0 1,0 -1,0  M304.05 515.56 L304.05 515.56 316.05 515.56 M310.05 521.56 L310.05 521.56 310.05 509.55999999999995" id="h515368828" class="r"></path><path d="M 727 88 m -1, 0 a 1,1 0 1,0 2,0 a 1,1 0 1,0 -2,0 M 727 88 m -0.5, 0 a 0.5,0.5 0 1,0 1,0 a 0.5,0.5 0 1,0 -1,0  M727 88 L727 88 715 88 M721 94 L721 94 721 82 M715 88 Q 672.76 88, 630.52 89 T 546.03 90 M 534.03 90 m -1, 0 a 1,1 0 1,0 2,0 a 1,1 0 1,0 -2,0 M 534.03 90 m -0.5, 0 a 0.5,0.5 0 1,0 1,0 a 0.5,0.5 0 1,0 -1,0  M534.03 90 L534.03 90 546.03 90 M540.03 96 L540.03 96 540.03 84" id="h2473793581" class="r"></path><path d="M 416 115 m -1, 0 a 1,1 0 1,0 2,0 a 1,1 0 1,0 -2,0 M 416 115 m -0.5, 0 a 0.5,0.5 0 1,0 1,0 a 0.5,0.5 0 1,0 -1,0  M416 115 L416 115 404 115 M 416 121 m -1, 0 a 1,1 0 1,0 2,0 a 1,1 0 1,0 -2,0 M 416 121 m -0.5, 0 a 0.5,0.5 0 1,0 1,0 a 0.5,0.5 0 1,0 -1,0  M416 121 L416 121 409 115 416 109 M 416 109 m -1, 0 a 1,1 0 1,0 2,0 a 1,1 0 1,0 -2,0 M 416 109 m -0.5, 0 a 0.5,0.5 0 1,0 1,0 a 0.5,0.5 0 1,0 -1,0  M404 115 Q 385.74 115, 367.48 104 T 330.95 93 M 318.95 93 m -1, 0 a 1,1 0 1,0 2,0 a 1,1 0 1,0 -2,0 M 318.95 93 m -0.5, 0 a 0.5,0.5 0 1,0 1,0 a 0.5,0.5 0 1,0 -1,0  M318.95 93 L318.95 93 330.95 93 M324.95 99 L324.95 99 324.95 87" id="h3885598225" class="r"></path><path d="M 857.29 372.56 m -1, 0 a 1,1 0 1,0 2,0 a 1,1 0 1,0 -2,0 M 857.29 372.56 m -0.5, 0 a 0.5,0.5 0 1,0 1,0 a 0.5,0.5 0 1,0 -1,0  M857.29 372.56 L857.29 372.56 869.29 372.56 M 857.29 378.56 m -1, 0 a 1,1 0 1,0 2,0 a 1,1 0 1,0 -2,0 M 857.29 378.56 m -0.5, 0 a 0.5,0.5 0 1,0 1,0 a 0.5,0.5 0 1,0 -1,0  M857.29 378.56 L857.29 378.56 864.29 372.56 857.29 366.56 M 857.29 366.56 m -1, 0 a 1,1 0 1,0 2,0 a 1,1 0 1,0 -2,0 M 857.29 366.56 m -0.5, 0 a 0.5,0.5 0 1,0 1,0 a 0.5,0.5 0 1,0 -1,0  M869.29 372.56 C 919.29 372.56, 926.646 88, 857.03 88 M 845.03 88 m -1, 0 a 1,1 0 1,0 2,0 a 1,1 0 1,0 -2,0 M 845.03 88 m -0.5, 0 a 0.5,0.5 0 1,0 1,0 a 0.5,0.5 0 1,0 -1,0  M845.03 88 L845.03 88 857.03 88 M851.03 94 L851.03 94 851.03 82" id="h1379022068" class="r"></path><path d="M 857.29 397.56 m -1, 0 a 1,1 0 1,0 2,0 a 1,1 0 1,0 -2,0 M 857.29 397.56 m -0.5, 0 a 0.5,0.5 0 1,0 1,0 a 0.5,0.5 0 1,0 -1,0  M857.29 397.56 L857.29 397.56 869.29 397.56 M 857.29 403.56 m -1, 0 a 1,1 0 1,0 2,0 a 1,1 0 1,0 -2,0 M 857.29 403.56 m -0.5, 0 a 0.5,0.5 0 1,0 1,0 a 0.5,0.5 0 1,0 -1,0  M857.29 403.56 L857.29 403.56 864.29 397.56 857.29 391.56 M 857.29 391.56 m -1, 0 a 1,1 0 1,0 2,0 a 1,1 0 1,0 -2,0 M 857.29 391.56 m -0.5, 0 a 0.5,0.5 0 1,0 1,0 a 0.5,0.5 0 1,0 -1,0  M869.29 397.56 C 919.29 397.56, 926.646 88, 857.03 88 M 845.03 88 m -1, 0 a 1,1 0 1,0 2,0 a 1,1 0 1,0 -2,0 M 845.03 88 m -0.5, 0 a 0.5,0.5 0 1,0 1,0 a 0.5,0.5 0 1,0 -1,0  M845.03 88 L845.03 88 857.03 88 M851.03 94 L851.03 94 851.03 82" id="h2161129077" class="r"></path><path d="M 717.78 541.44 m -1, 0 a 1,1 0 1,0 2,0 a 1,1 0 1,0 -2,0 M 717.78 541.44 m -0.5, 0 a 0.5,0.5 0 1,0 1,0 a 0.5,0.5 0 1,0 -1,0  M717.78 541.44 L717.78 541.44 705.78 541.44 M 717.78 547.44 m -1, 0 a 1,1 0 1,0 2,0 a 1,1 0 1,0 -2,0 M 717.78 547.44 m -0.5, 0 a 0.5,0.5 0 1,0 1,0 a 0.5,0.5 0 1,0 -1,0  M717.78 547.44 L717.78 547.44 710.78 541.44 717.78 535.44 M 717.78 535.44 m -1, 0 a 1,1 0 1,0 2,0 a 1,1 0 1,0 -2,0 M 717.78 535.44 m -0.5, 0 a 0.5,0.5 0 1,0 1,0 a 0.5,0.5 0 1,0 -1,0  M705.78 541.44 C 655.78 541.44, 650.2479999999999 88, 715 88 M 727 88 m -1, 0 a 1,1 0 1,0 2,0 a 1,1 0 1,0 -2,0 M 727 88 m -0.5, 0 a 0.5,0.5 0 1,0 1,0 a 0.5,0.5 0 1,0 -1,0  M727 88 L727 88 715 88 M721 94 L721 94 721 82" id="h2696916875" class="r"></path><path d="M 717.78 566.44 m -1, 0 a 1,1 0 1,0 2,0 a 1,1 0 1,0 -2,0 M 717.78 566.44 m -0.5, 0 a 0.5,0.5 0 1,0 1,0 a 0.5,0.5 0 1,0 -1,0  M717.78 566.44 L717.78 566.44 705.78 566.44 M 717.78 572.44 m -1, 0 a 1,1 0 1,0 2,0 a 1,1 0 1,0 -2,0 M 717.78 572.44 m -0.5, 0 a 0.5,0.5 0 1,0 1,0 a 0.5,0.5 0 1,0 -1,0  M717.78 572.44 L717.78 572.44 710.78 566.44 717.78 560.44 M 717.78 560.44 m -1, 0 a 1,1 0 1,0 2,0 a 1,1 0 1,0 -2,0 M 717.78 560.44 m -0.5, 0 a 0.5,0.5 0 1,0 1,0 a 0.5,0.5 0 1,0 -1,0  M705.78 566.44 C 655.78 566.44, 650.2479999999999 88, 715 88 M 727 88 m -1, 0 a 1,1 0 1,0 2,0 a 1,1 0 1,0 -2,0 M 727 88 m -0.5, 0 a 0.5,0.5 0 1,0 1,0 a 0.5,0.5 0 1,0 -1,0  M727 88 L727 88 715 88 M721 94 L721 94 721 82" id="h464967136" class="r"></path></g><g class="hrs"></g><g class="ts"><svg width="144.73" height="200" x="174.22" y="36" id="h4200617828" class="t"><rect height="40" width="144.73" class="th"></rect><text x="13" y="25" class="tht">film</text><rect height="160" width="144.73" class="t-bg"></rect><text x="13" y="61" class="tf pk">film_id<tspan x="131.73" class="ty">int</tspan></text><path d="M7,14A2,2 0 0,1 5,12A2,2 0 0,1 7,10A2,2 0 0,1 9,12A2,2 0 0,1 7,14M12.65,10C11.83,7.67 9.61,6 7, 6A6, 6 0 0, 0 1, 12A6, 6 0 0, 0 7, 18C9.61, 18 11.83, 16.33 12.65, 14H17V18H21V14H23V10H12.65Z" class="i pk" transform="translate(99.05617187499999, 48) scale(0.65)"></path><text x="13" y="86" class="tf">Name<tspan x="131.73" class="ty">string</tspan></text><text x="13" y="111" class="tf">description<tspan x="131.73" class="ty">string</tspan></text><text x="13" y="136" class="tf">release_date<tspan x="131.73" class="ty">string</tspan></text><text x="13" y="161" class="tf">duration<tspan x="131.73" class="ty">int</tspan></text><text x="13" y="186" class="tf fk">rating_id<tspan x="131.73" class="ty">int</tspan></text></svg><svg width="124.71" height="100" x="437" y="301" id="h2037942479" class="t"><rect height="40" width="124.71" class="th"></rect><text x="13" y="25" class="tht">rating</text><rect height="60" width="124.71" class="t-bg"></rect><text x="13" y="61" class="tf pk">rating_id<tspan x="111.71" class="ty">int</tspan></text><path d="M7,14A2,2 0 0,1 5,12A2,2 0 0,1 7,10A2,2 0 0,1 9,12A2,2 0 0,1 7,14M12.65,10C11.83,7.67 9.61,6 7, 6A6, 6 0 0, 0 1, 12A6, 6 0 0, 0 7, 18C9.61, 18 11.83, 16.33 12.65, 14H17V18H21V14H23V10H12.65Z" class="i pk" transform="translate(79.036171875, 48) scale(0.65)"></path><text x="13" y="86" class="tf">name<tspan x="111.71" class="ty">string</tspan></text></svg><svg width="125.38" height="100" x="178.67" y="458.56" id="h1304626560" class="t"><rect height="40" width="125.38" class="th"></rect><text x="13" y="25" class="tht">genre</text><rect height="60" width="125.38" class="t-bg"></rect><text x="13" y="61" class="tf pk">genre_id<tspan x="112.38" class="ty">int</tspan></text><path d="M7,14A2,2 0 0,1 5,12A2,2 0 0,1 7,10A2,2 0 0,1 9,12A2,2 0 0,1 7,14M12.65,10C11.83,7.67 9.61,6 7, 6A6, 6 0 0, 0 1, 12A6, 6 0 0, 0 7, 18C9.61, 18 11.83, 16.33 12.65, 14H17V18H21V14H23V10H12.65Z" class="i pk" transform="translate(79.706171875, 48) scale(0.65)"></path><text x="13" y="86" class="tf">name<tspan x="112.38" class="ty">string</tspan></text></svg><svg width="113.35" height="100" x="196" y="297.11" id="h1016190631" class="t"><rect height="40" width="113.35" class="th"></rect><text x="13" y="25" class="tht">film_genre</text><rect height="60" width="113.35" class="t-bg"></rect><text x="13" y="61" class="tf pk">film_id<tspan x="100.35" class="ty">int</tspan></text><path d="M7,14A2,2 0 0,1 5,12A2,2 0 0,1 7,10A2,2 0 0,1 9,12A2,2 0 0,1 7,14M12.65,10C11.83,7.67 9.61,6 7, 6A6, 6 0 0, 0 1, 12A6, 6 0 0, 0 7, 18C9.61, 18 11.83, 16.33 12.65, 14H17V18H21V14H23V10H12.65Z" class="i pk" transform="translate(67.676171875, 48) scale(0.65)"></path><text x="13" y="86" class="tf fk">genre_id<tspan x="100.35" class="ty">int</tspan></text></svg><svg width="118.03" height="175" x="727" y="31" id="h2728321744" class="t"><rect height="40" width="118.03" class="th"></rect><text x="13" y="25" class="tht">user</text><rect height="135" width="118.03" class="t-bg"></rect><text x="13" y="61" class="tf pk">user_id<tspan x="105.03" class="ty">int</tspan></text><path d="M7,14A2,2 0 0,1 5,12A2,2 0 0,1 7,10A2,2 0 0,1 9,12A2,2 0 0,1 7,14M12.65,10C11.83,7.67 9.61,6 7, 6A6, 6 0 0, 0 1, 12A6, 6 0 0, 0 7, 18C9.61, 18 11.83, 16.33 12.65, 14H17V18H21V14H23V10H12.65Z" class="i pk" transform="translate(72.356171875, 48) scale(0.65)"></path><text x="13" y="86" class="tf">email<tspan x="105.03" class="ty">string</tspan></text><text x="13" y="111" class="tf">login<tspan x="105.03" class="ty">string</tspan></text><text x="13" y="136" class="tf">name<tspan x="105.03" class="ty">string</tspan></text><text x="13" y="161" class="tf">birthday<tspan x="105.03" class="ty">date</tspan></text></svg><svg width="118.03" height="100" x="416" y="33" id="h3195396229" class="t"><rect height="40" width="118.03" class="th"></rect><text x="13" y="25" class="tht">like</text><rect height="60" width="118.03" class="t-bg"></rect><text x="13" y="61" class="tf pk">user_id<tspan x="105.03" class="ty">int</tspan></text><path d="M7,14A2,2 0 0,1 5,12A2,2 0 0,1 7,10A2,2 0 0,1 9,12A2,2 0 0,1 7,14M12.65,10C11.83,7.67 9.61,6 7, 6A6, 6 0 0, 0 1, 12A6, 6 0 0, 0 7, 18C9.61, 18 11.83, 16.33 12.65, 14H17V18H21V14H23V10H12.65Z" class="i pk" transform="translate(72.356171875, 48) scale(0.65)"></path><text x="13" y="86" class="tf fk">film_id<tspan x="105.03" class="ty">int</tspan></text></svg><svg width="152.85" height="100" x="704.44" y="315.56" id="h4229530827" class="t"><rect height="40" width="152.85" class="th"></rect><text x="13" y="25" class="tht">unconfirmed_friends</text><rect height="60" width="152.85" class="t-bg"></rect><text x="13" y="61" class="tf pk">user_id<tspan x="139.85" class="ty">int</tspan></text><path d="M7,14A2,2 0 0,1 5,12A2,2 0 0,1 7,10A2,2 0 0,1 9,12A2,2 0 0,1 7,14M12.65,10C11.83,7.67 9.61,6 7, 6A6, 6 0 0, 0 1, 12A6, 6 0 0, 0 7, 18C9.61, 18 11.83, 16.33 12.65, 14H17V18H21V14H23V10H12.65Z" class="i pk" transform="translate(107.176171875, 48) scale(0.65)"></path><text x="13" y="86" class="tf fk">friend_request_id<tspan x="139.85" class="ty">int</tspan></text></svg><svg width="137.28" height="100" x="717.78" y="484.44" id="h407750087" class="t"><rect height="40" width="137.28" class="th"></rect><text x="13" y="25" class="tht">confirmed_friends</text><rect height="60" width="137.28" class="t-bg"></rect><text x="13" y="61" class="tf pk">user_id<tspan x="124.28" class="ty">int</tspan></text><path d="M7,14A2,2 0 0,1 5,12A2,2 0 0,1 7,10A2,2 0 0,1 9,12A2,2 0 0,1 7,14M12.65,10C11.83,7.67 9.61,6 7, 6A6, 6 0 0, 0 1, 12A6, 6 0 0, 0 7, 18C9.61, 18 11.83, 16.33 12.65, 14H17V18H21V14H23V10H12.65Z" class="i pk" transform="translate(91.606171875, 48) scale(0.65)"></path><text x="13" y="86" class="tf fk">friend_id<tspan x="124.28" class="ty">int</tspan></text></svg></g></g><text class="qdbd-link" x="10" y="20">www.quickdatabasediagrams.com</text></svg>